<svg width="24" height="24" viewBox="0 0 24 24" fill="none" xmlns="http://www.w3.org/2000/svg">
<path d="M10.6734 0.548438C11.4047 -0.182812 12.5906 -0.182812 13.3266 0.548438L23.4516 10.6734C24.1828 11.4047 24.1828 12.5906 23.4516 13.3266L13.3266 23.4516C12.5953 24.1828 11.4094 24.1828 10.6734 23.4516L0.548438 13.3266C-0.182812 12.5953 -0.182812 11.4094 0.548438 10.6734L10.6734 0.548438ZM14.7797 6.97031C14.5641 6.75469 14.2406 6.69375 13.9641 6.80625C13.6875 6.91875 13.5 7.19531 13.5 7.5V10.125H10.5C8.84531 10.125 7.5 11.4703 7.5 13.125V15.375C7.5 15.9984 8.00156 16.5 8.625 16.5C9.24844 16.5 9.75 15.9984 9.75 15.375V13.125C9.75 12.7125 10.0875 12.375 10.5 12.375H13.5V15C13.5 15.3047 13.6828 15.5766 13.9641 15.6937C14.2453 15.8109 14.5687 15.7453 14.7797 15.5297L18.5297 11.7797C18.8203 11.4891 18.8203 11.0109 18.5297 10.7203L14.7797 6.97031Z" fill="#F0F0F0"/>
</svg>
