<svg width="26" height="30" viewBox="0 0 26 30" fill="none" xmlns="http://www.w3.org/2000/svg">
<path d="M5.57143 1.875V3.75H2.78571C1.24777 3.75 0 5.00977 0 6.5625V9.375H26V6.5625C26 5.00977 24.7522 3.75 23.2143 3.75H20.4286V1.875C20.4286 0.837891 19.5987 0 18.5714 0C17.5442 0 16.7143 0.837891 16.7143 1.875V3.75H9.28571V1.875C9.28571 0.837891 8.4558 0 7.42857 0C6.40134 0 5.57143 0.837891 5.57143 1.875ZM26 11.25H0V27.1875C0 28.7402 1.24777 30 2.78571 30H23.2143C24.7522 30 26 28.7402 26 27.1875V11.25Z" fill="#222222"/>
</svg>
