<svg width="16" height="15" viewBox="0 0 16 15" fill="none" xmlns="http://www.w3.org/2000/svg">
<path d="M11.8094 2.55938L15.6469 6.39687C15.8719 6.62187 16 6.93125 16 7.25C16 7.56875 15.8719 7.87812 15.6469 8.10312L11.8094 11.9406C11.6094 12.1406 11.3406 12.25 11.0594 12.25C10.475 12.25 10 11.775 10 11.1906V9.25H6C5.44688 9.25 5 8.80313 5 8.25V6.25C5 5.69688 5.44688 5.25 6 5.25H10V3.30937C10 2.725 10.475 2.25 11.0594 2.25C11.3406 2.25 11.6094 2.3625 11.8094 2.55938ZM5 2.25H3C2.44688 2.25 2 2.69688 2 3.25V11.25C2 11.8031 2.44688 12.25 3 12.25H5C5.55312 12.25 6 12.6969 6 13.25C6 13.8031 5.55312 14.25 5 14.25H3C1.34375 14.25 0 12.9062 0 11.25V3.25C0 1.59375 1.34375 0.25 3 0.25H5C5.55312 0.25 6 0.696875 6 1.25C6 1.80313 5.55312 2.25 5 2.25Z" fill="#EF4444"/>
</svg>
