<svg width="12" height="17" viewBox="0 0 12 17" fill="none" xmlns="http://www.w3.org/2000/svg">
<path d="M6.74062 16.2418C8.34375 14.2356 12 9.3731 12 6.64185C12 3.32935 9.3125 0.641846 6 0.641846C2.6875 0.641846 0 3.32935 0 6.64185C0 9.3731 3.65625 14.2356 5.25938 16.2418C5.64375 16.72 6.35625 16.72 6.74062 16.2418ZM6 4.64185C6.53043 4.64185 7.03914 4.85256 7.41421 5.22763C7.78929 5.6027 8 6.11141 8 6.64185C8 7.17228 7.78929 7.68099 7.41421 8.05606C7.03914 8.43113 6.53043 8.64185 6 8.64185C5.46957 8.64185 4.96086 8.43113 4.58579 8.05606C4.21071 7.68099 4 7.17228 4 6.64185C4 6.11141 4.21071 5.6027 4.58579 5.22763C4.96086 4.85256 5.46957 4.64185 6 4.64185Z" fill="#16A34A"/>
</svg>
