<svg width="16" height="17" viewBox="0 0 16 17" fill="none" xmlns="http://www.w3.org/2000/svg">
<path d="M5.15312 1.5695C4.9125 0.988253 4.27812 0.678878 3.67188 0.844503L0.921875 1.5945C0.378125 1.7445 0 2.23825 0 2.80075C0 10.532 6.26875 16.8008 14 16.8008C14.5625 16.8008 15.0563 16.4226 15.2063 15.8789L15.9563 13.1289C16.1219 12.5226 15.8125 11.8883 15.2312 11.6476L12.2312 10.3976C11.7219 10.1851 11.1313 10.332 10.7844 10.7601L9.52188 12.3008C7.32188 11.2601 5.54063 9.47888 4.5 7.27888L6.04063 6.0195C6.46875 5.6695 6.61562 5.082 6.40312 4.57263L5.15312 1.57263V1.5695Z" fill="#4B5563"/>
</svg>
