<svg width="16" height="16" viewBox="0 0 16 16" fill="none" xmlns="http://www.w3.org/2000/svg">
<path d="M8 0C8.15333 0 8.30667 0.0314219 8.44666 0.0911235L14.7233 2.60173C15.4567 2.89396 16.0033 3.57581 16 4.39906C15.9833 7.51611 14.6233 13.2192 8.88 15.8115C8.32333 16.0629 7.67667 16.0629 7.12 15.8115C1.37668 13.2192 0.0166818 7.51611 1.51616e-05 4.39906C-0.00331817 3.57581 0.543347 2.89396 1.27668 2.60173L7.55667 0.0911235C7.69333 0.0314219 7.84667 0 8 0ZM8 2.09898V13.9765C12.6 11.8775 13.8367 7.23018 13.8667 4.44305L8 2.09898Z" fill="#222222"/>
</svg>
