<svg width="16" height="16" viewBox="0 0 16 16" fill="none" xmlns="http://www.w3.org/2000/svg">
<path d="M0 13.1418C0 13.695 0.446875 14.1418 1 14.1418H2.70937C3.09375 15.0262 3.975 15.6418 5 15.6418C6.025 15.6418 6.90625 15.0262 7.29063 14.1418H15C15.5531 14.1418 16 13.695 16 13.1418C16 12.5887 15.5531 12.1418 15 12.1418H7.29063C6.90625 11.2575 6.025 10.6418 5 10.6418C3.975 10.6418 3.09375 11.2575 2.70937 12.1418H1C0.446875 12.1418 0 12.5887 0 13.1418ZM4 13.1418C4 12.8766 4.10536 12.6223 4.29289 12.4347C4.48043 12.2472 4.73478 12.1418 5 12.1418C5.26522 12.1418 5.51957 12.2472 5.70711 12.4347C5.89464 12.6223 6 12.8766 6 13.1418C6 13.4071 5.89464 13.6614 5.70711 13.849C5.51957 14.0365 5.26522 14.1418 5 14.1418C4.73478 14.1418 4.48043 14.0365 4.29289 13.849C4.10536 13.6614 4 13.4071 4 13.1418ZM10 8.14185C10 7.87663 10.1054 7.62228 10.2929 7.43474C10.4804 7.2472 10.7348 7.14185 11 7.14185C11.2652 7.14185 11.5196 7.2472 11.7071 7.43474C11.8946 7.62228 12 7.87663 12 8.14185C12 8.40706 11.8946 8.66142 11.7071 8.84895C11.5196 9.03649 11.2652 9.14185 11 9.14185C10.7348 9.14185 10.4804 9.03649 10.2929 8.84895C10.1054 8.66142 10 8.40706 10 8.14185ZM11 5.64185C9.975 5.64185 9.09375 6.25747 8.70938 7.14185H1C0.446875 7.14185 0 7.58872 0 8.14185C0 8.69497 0.446875 9.14185 1 9.14185H8.70938C9.09375 10.0262 9.975 10.6418 11 10.6418C12.025 10.6418 12.9062 10.0262 13.2906 9.14185H15C15.5531 9.14185 16 8.69497 16 8.14185C16 7.58872 15.5531 7.14185 15 7.14185H13.2906C12.9062 6.25747 12.025 5.64185 11 5.64185ZM6 4.14185C5.73478 4.14185 5.48043 4.03649 5.29289 3.84895C5.10536 3.66142 5 3.40706 5 3.14185C5 2.87663 5.10536 2.62228 5.29289 2.43474C5.48043 2.2472 5.73478 2.14185 6 2.14185C6.26522 2.14185 6.51957 2.2472 6.70711 2.43474C6.89464 2.62228 7 2.87663 7 3.14185C7 3.40706 6.89464 3.66142 6.70711 3.84895C6.51957 4.03649 6.26522 4.14185 6 4.14185ZM8.29062 2.14185C7.90625 1.25747 7.025 0.641846 6 0.641846C4.975 0.641846 4.09375 1.25747 3.70937 2.14185H1C0.446875 2.14185 0 2.58872 0 3.14185C0 3.69497 0.446875 4.14185 1 4.14185H3.70937C4.09375 5.02622 4.975 5.64185 6 5.64185C7.025 5.64185 7.90625 5.02622 8.29062 4.14185H15C15.5531 4.14185 16 3.69497 16 3.14185C16 2.58872 15.5531 2.14185 15 2.14185H8.29062Z" fill="#EA580C"/>
</svg>
