<svg width="17" height="14" viewBox="0 0 17 14" fill="none" xmlns="http://www.w3.org/2000/svg">
<path d="M10.2188 0.0878854C9.85938 0.24726 9.625 0.606635 9.625 1.00039V3.00039H6.125C3.0875 3.00039 0.625 5.46289 0.625 8.50039C0.625 12.041 3.17188 13.6223 3.75625 13.941C3.83437 13.9848 3.92188 14.0004 4.00938 14.0004C4.35 14.0004 4.625 13.7223 4.625 13.3848C4.625 13.1504 4.49062 12.9348 4.31875 12.7754C4.025 12.4973 3.625 11.9504 3.625 11.0004C3.625 9.34414 4.96875 8.00039 6.625 8.00039H9.625V10.0004C9.625 10.3941 9.85625 10.7535 10.2188 10.9129C10.5813 11.0723 11 11.0066 11.2937 10.7441L16.2937 6.24414C16.5031 6.05351 16.625 5.78476 16.625 5.50039C16.625 5.21601 16.5062 4.94726 16.2937 4.75664L11.2937 0.256635C11 -0.00898954 10.5781 -0.0746146 10.2188 0.0878854Z" fill="#222222"/>
</svg>
