<svg width="13" height="14" viewBox="0 0 13 14" fill="none" xmlns="http://www.w3.org/2000/svg">
<path d="M10.475 7.39688C10.4688 6.25 10.9875 5.38437 12.0375 4.74687C11.45 3.90625 10.5625 3.44375 9.39062 3.35313C8.28125 3.26562 7.06875 4 6.625 4C6.15625 4 5.08125 3.38438 4.2375 3.38438C2.49375 3.4125 0.640625 4.775 0.640625 7.54688C0.640625 8.36563 0.790625 9.21146 1.09062 10.0844C1.49063 11.2313 2.93437 14.0437 4.44062 13.9969C5.22813 13.9781 5.78437 13.4375 6.80937 13.4375C7.80312 13.4375 8.31875 13.9969 9.19687 13.9969C10.7156 13.975 12.0219 11.4187 12.4031 10.2688C10.3656 9.30937 10.475 7.45625 10.475 7.39688ZM8.70625 2.26562C9.55937 1.25312 9.48125 0.33125 9.45625 0C8.70312 0.04375 7.83125 0.5125 7.33437 1.09063C6.7875 1.70938 6.46563 2.475 6.53438 3.3375C7.35 3.4 8.09375 2.98125 8.70625 2.26562Z" fill="white"/>
</svg>
