<svg width="17" height="14" viewBox="0 0 17 14" fill="none" xmlns="http://www.w3.org/2000/svg">
<path d="M5.15938 1.025L4.83437 2H2.5C1.39688 2 0.5 2.89687 0.5 4V12C0.5 13.1031 1.39688 14 2.5 14H14.5C15.6031 14 16.5 13.1031 16.5 12V4C16.5 2.89687 15.6031 2 14.5 2H12.1656L11.8406 1.025C11.6375 0.4125 11.0656 0 10.4187 0H6.58125C5.93438 0 5.3625 0.4125 5.15938 1.025ZM8.5 5C9.29565 5 10.0587 5.31607 10.6213 5.87868C11.1839 6.44129 11.5 7.20435 11.5 8C11.5 8.79565 11.1839 9.55871 10.6213 10.1213C10.0587 10.6839 9.29565 11 8.5 11C7.70435 11 6.94129 10.6839 6.37868 10.1213C5.81607 9.55871 5.5 8.79565 5.5 8C5.5 7.20435 5.81607 6.44129 6.37868 5.87868C6.94129 5.31607 7.70435 5 8.5 5Z" fill="#4B5563"/>
</svg>
