<svg width="13" height="16" viewBox="0 0 13 16" fill="none" xmlns="http://www.w3.org/2000/svg">
<path d="M2.23438 0C1.40625 0 0.734375 0.671875 0.734375 1.5V14.5C0.734375 15.3281 1.40625 16 2.23438 16H5.23438V13.5C5.23438 12.6719 5.90625 12 6.73438 12C7.5625 12 8.23438 12.6719 8.23438 13.5V16H11.2344C12.0625 16 12.7344 15.3281 12.7344 14.5V1.5C12.7344 0.671875 12.0625 0 11.2344 0H2.23438ZM2.73438 7.5C2.73438 7.225 2.95937 7 3.23438 7H4.23438C4.50938 7 4.73438 7.225 4.73438 7.5V8.5C4.73438 8.775 4.50938 9 4.23438 9H3.23438C2.95937 9 2.73438 8.775 2.73438 8.5V7.5ZM6.23438 7H7.23438C7.50938 7 7.73438 7.225 7.73438 7.5V8.5C7.73438 8.775 7.50938 9 7.23438 9H6.23438C5.95937 9 5.73438 8.775 5.73438 8.5V7.5C5.73438 7.225 5.95937 7 6.23438 7ZM8.73438 7.5C8.73438 7.225 8.95938 7 9.23438 7H10.2344C10.5094 7 10.7344 7.225 10.7344 7.5V8.5C10.7344 8.775 10.5094 9 10.2344 9H9.23438C8.95938 9 8.73438 8.775 8.73438 8.5V7.5ZM3.23438 3H4.23438C4.50938 3 4.73438 3.225 4.73438 3.5V4.5C4.73438 4.775 4.50938 5 4.23438 5H3.23438C2.95937 5 2.73438 4.775 2.73438 4.5V3.5C2.73438 3.225 2.95937 3 3.23438 3ZM5.73438 3.5C5.73438 3.225 5.95937 3 6.23438 3H7.23438C7.50938 3 7.73438 3.225 7.73438 3.5V4.5C7.73438 4.775 7.50938 5 7.23438 5H6.23438C5.95937 5 5.73438 4.775 5.73438 4.5V3.5ZM9.23438 3H10.2344C10.5094 3 10.7344 3.225 10.7344 3.5V4.5C10.7344 4.775 10.5094 5 10.2344 5H9.23438C8.95938 5 8.73438 4.775 8.73438 4.5V3.5C8.73438 3.225 8.95938 3 9.23438 3Z" fill="white"/>
</svg>
