<svg width="26" height="31" viewBox="0 0 26 31" fill="none" xmlns="http://www.w3.org/2000/svg">
<path d="M5.57143 2.15869V4.03369H2.78571C1.24777 4.03369 0 5.29346 0 6.84619V9.65869H26V6.84619C26 5.29346 24.7522 4.03369 23.2143 4.03369H20.4286V2.15869C20.4286 1.12158 19.5987 0.283691 18.5714 0.283691C17.5442 0.283691 16.7143 1.12158 16.7143 2.15869V4.03369H9.28571V2.15869C9.28571 1.12158 8.4558 0.283691 7.42857 0.283691C6.40134 0.283691 5.57143 1.12158 5.57143 2.15869ZM26 11.5337H0V27.4712C0 29.0239 1.24777 30.2837 2.78571 30.2837H23.2143C24.7522 30.2837 26 29.0239 26 27.4712V11.5337Z" fill="#10B981"/>
</svg>
