<svg width="18" height="14" viewBox="0 0 18 14" fill="none" xmlns="http://www.w3.org/2000/svg">
<path d="M9.0002 0C6.4752 0 4.45332 1.15 2.98145 2.51875C1.51895 3.875 0.54082 5.5 0.0783203 6.61562C-0.0248047 6.8625 -0.0248047 7.1375 0.0783203 7.38437C0.54082 8.5 1.51895 10.125 2.98145 11.4812C4.45332 12.85 6.4752 14 9.0002 14C11.5252 14 13.5471 12.85 15.0189 11.4812C16.4814 10.1219 17.4596 8.5 17.9252 7.38437C18.0283 7.1375 18.0283 6.8625 17.9252 6.61562C17.4596 5.5 16.4814 3.875 15.0189 2.51875C13.5471 1.15 11.5252 0 9.0002 0ZM4.5002 7C4.5002 5.80653 4.9743 4.66193 5.81821 3.81802C6.66213 2.97411 7.80672 2.5 9.0002 2.5C10.1937 2.5 11.3383 2.97411 12.1822 3.81802C13.0261 4.66193 13.5002 5.80653 13.5002 7C13.5002 8.19347 13.0261 9.33807 12.1822 10.182C11.3383 11.0259 10.1937 11.5 9.0002 11.5C7.80672 11.5 6.66213 11.0259 5.81821 10.182C4.9743 9.33807 4.5002 8.19347 4.5002 7ZM9.0002 5C9.0002 6.10313 8.10332 7 7.0002 7C6.77832 7 6.56582 6.9625 6.36582 6.89687C6.19395 6.84062 5.99395 6.94688 6.0002 7.12813C6.00957 7.34375 6.04082 7.55937 6.1002 7.775C6.52832 9.375 8.17519 10.325 9.7752 9.89688C11.3752 9.46875 12.3252 7.82188 11.8971 6.22188C11.5502 4.925 10.4033 4.05312 9.12832 4C8.94707 3.99375 8.84082 4.19062 8.89707 4.36562C8.9627 4.56562 9.0002 4.77812 9.0002 5Z" fill="#9CA3AF"/>
</svg>
