<svg width="159" height="125" viewBox="0 0 159 125" fill="none" xmlns="http://www.w3.org/2000/svg">
<path d="M24.9277 90.1133C24.1284 93.0568 23.6992 95.7188 23.6992 98.0684C23.6994 100.523 25.1076 102.559 26.8115 104.149L26.8252 104.161L26.8379 104.174C28.3927 105.59 30.3499 106.924 32.5547 106.924C34.56 106.924 36.327 105.826 37.749 104.593C37.883 104.807 38.0345 105.017 38.208 105.217L38.2773 105.298L38.3535 105.373C39.3704 106.39 40.68 106.924 42.1064 106.924C43.3339 106.924 44.5083 106.509 45.4619 105.657C46.3541 104.86 46.8831 103.834 47.209 102.856L47.2227 102.813C47.8179 100.932 48.6044 98.5313 49.583 95.6074V111.509L22.1113 124.071C18.6963 125.626 15.0002 122.763 15 118.567V93.8584C16.2866 93.6429 17.6296 93.3599 19.0264 93.0107L19.6836 92.835C21.198 92.4031 22.5829 91.8134 23.7852 91.0244C24.1809 90.7647 24.5686 90.4599 24.9277 90.1133ZM83.0791 95.377C83.6058 96.0604 84.2619 96.6419 85.0527 97.0801C86.1807 97.7051 87.4174 97.9482 88.6426 97.9482C90.3413 97.9482 91.8297 97.2736 93.1035 96.293C93.0591 96.8883 93.0352 97.4638 93.0352 98.0195C93.0352 99.8543 93.4441 101.621 94.2373 103.291L94.2568 103.332L94.2773 103.373C94.6712 104.141 95.1665 104.926 95.8125 105.556C96.3212 106.052 97.0566 106.571 98 106.779V124.466L56.5 110.916V106.596C57.1418 106.802 57.8064 106.924 58.4902 106.924C61.5162 106.924 64.3485 105.937 66.9336 104.124L66.9453 104.115L66.958 104.106C68.1397 103.26 69.1763 102.371 69.9453 101.43C70.1098 101.228 70.2717 101.008 70.4277 100.773C70.7889 101.636 71.2695 102.472 71.7705 103.248L71.79 103.278L71.8105 103.309C72.3766 104.14 72.9754 104.907 73.6045 105.498C74.1169 105.98 75.1938 106.876 76.6904 106.876C77.854 106.876 78.6817 106.299 79.126 105.888C79.5748 105.472 79.8914 104.993 80.1113 104.608C80.5572 103.828 80.9373 102.834 81.2783 101.76L81.2773 101.759C81.668 100.554 81.9873 99.5008 82.2275 98.6084L83.0791 95.377ZM132.389 32.0107C135.804 30.4559 139.5 33.3191 139.5 37.5146V75.7139C139.004 75.5463 138.49 75.4323 137.962 75.3984L137.633 75.3877C136.68 75.3877 135.42 75.6402 134.432 76.6631C133.461 77.667 133.241 78.9107 133.241 79.8281C133.241 80.9178 133.183 82.1265 133.072 83.4561C132.491 81.9895 131.431 80.6994 130.254 79.5957L129.896 79.2676C127.963 77.5457 125.707 76.1563 123.244 76.1562C119.813 76.1562 116.726 77.9272 114.019 80.6348L114.012 80.6416L114.005 80.6494C111.587 83.0998 109.619 85.7762 108.122 88.6797L107.828 89.2627C106.418 92.1481 105.46 94.8474 105.46 97.1084C105.46 99.7494 106.873 101.999 108.782 103.832L108.806 103.854C110.646 105.583 112.84 106.924 115.324 106.924C117.089 106.924 118.777 106.269 120.313 105.336C120.829 105.023 121.346 104.664 121.867 104.267C121.881 104.286 121.894 104.304 121.907 104.323L121.927 104.353L121.948 104.38C122.361 104.93 122.842 105.486 123.397 105.931C123.911 106.342 124.82 106.924 126.028 106.924C126.844 106.924 127.942 106.718 128.843 105.928C128.546 107.174 128.307 108.231 128.13 109.092C127.91 110.159 127.721 111.213 127.721 111.94C127.721 112.516 127.819 113.079 127.982 113.62L104.917 124.145V98.1396C105.109 97.3722 105.359 96.3526 105.669 95.083L105.671 95.0752L105.673 95.0664C105.99 93.7348 106.291 92.5006 106.575 91.3633C106.892 90.192 107.316 88.6217 107.848 86.6523C108.418 84.6552 108.856 83.0525 109.155 81.8584C109.497 80.5937 109.801 79.2554 110.069 77.8457L110.072 77.833C110.344 76.3724 110.507 75.0492 110.507 73.9238C110.507 72.1434 109.69 70.6524 108.634 69.4814L108.42 69.251C107.539 68.3359 106.365 67.4504 104.917 67.1475V49.4609C105.674 47.758 106.364 46.0543 106.991 44.376C107.099 44.0798 107.207 43.759 107.315 43.4629L132.389 32.0107ZM137.633 78.3877C138.158 78.3877 138.78 78.5917 139.5 78.9961V103.806C139.4 103.812 139.3 103.818 139.2 103.821L138.833 103.828H138.257C137.729 106.023 137.24 107.93 136.793 109.551C136.614 109.663 136.429 109.765 136.236 109.854L130.758 112.354C130.733 112.21 130.721 112.072 130.721 111.94C130.721 111.296 131.076 109.488 131.786 106.517L132.112 105.172C134.778 94.3219 136.153 86.0547 136.236 80.3701L136.241 79.8281C136.241 78.8681 136.705 78.3877 137.633 78.3877ZM45.8027 79.1562C46.5707 79.1562 47.4504 79.8121 48.4424 81.124C48.9467 81.7702 49.327 82.3737 49.583 82.9346V86.0498C49.2238 87.2291 48.6203 89.0753 47.7705 91.5879L46.7295 94.6807C45.7515 97.6028 44.9623 100.012 44.3623 101.908L44.2754 102.152C43.8198 103.334 43.0964 103.924 42.1064 103.924L41.8711 103.913C41.3322 103.864 40.8666 103.644 40.4746 103.252C40.0587 102.772 39.8506 102.036 39.8506 101.044C39.8506 100.052 40.0428 98.6441 40.4268 96.8203C37.1308 101.556 34.5067 103.924 32.5547 103.924L32.3604 103.916C31.376 103.839 30.2084 103.186 28.8584 101.956C27.5086 100.696 26.7915 99.4783 26.707 98.3027L26.6992 98.0684C26.6992 95.1884 27.4579 91.5628 28.9766 87.1924L29.291 86.3076C31.0508 81.5403 32.6985 79.1566 34.2344 79.1562C35.1624 79.1562 35.9786 79.5723 36.6826 80.4043L36.8164 80.5605C37.4633 81.3499 37.787 82.2097 37.7871 83.1396L37.7822 83.2197C37.7355 83.6601 37.3371 84.706 36.5869 86.3564L36.1445 87.3281C34.5907 90.7943 33.6029 93.54 33.1787 95.5645C33.0194 96.3247 32.9385 96.9831 32.9385 97.54L32.9424 97.6074C32.9573 97.7333 33.0173 97.8051 33.1221 97.8232L33.1787 97.8281C33.6587 97.8281 34.5552 97.0763 35.8672 95.5723C37.0431 94.2283 38.3292 92.3942 39.7256 90.0703L40.3311 89.0439C41.8911 86.3739 43.1418 83.6616 44.083 80.9072L44.2666 80.3564C44.5226 79.5564 45.0347 79.1563 45.8027 79.1562ZM60.0742 71.332C60.6193 71.332 61.2588 71.5546 61.9961 71.9941C63.093 73.7143 64.1565 75.3339 65.1514 76.8232C65.0637 77.6619 64.8772 78.6956 64.5869 79.9238C65.6222 79.8807 66.4904 79.8528 67.1914 79.8389C67.7106 80.5952 68.198 81.298 68.6475 81.9404C68.9752 82.4078 69.325 82.8401 69.6924 83.2383C69.6544 83.2526 69.6171 83.27 69.5781 83.2842L69.0273 83.4658C67.6588 83.8963 65.7145 84.3641 63.1943 84.8682C62.9384 85.7321 62.5549 86.948 62.043 88.5156C61.563 90.0516 60.9548 91.9882 60.2188 94.3242C59.5148 96.6601 59.1621 97.9084 59.1621 98.0684C59.1625 98.1642 59.3069 98.2241 59.5947 98.248L59.9307 98.2598C60.4068 98.2597 61.4341 97.9902 63.0127 97.4512L63.7227 97.2041C65.7066 96.4681 66.8746 96.0996 67.2266 96.0996C68.0265 96.0996 68.4268 96.6444 68.4268 97.7324L68.4141 97.9385C68.2885 98.9847 67.2208 100.228 65.2109 101.668L64.8076 101.941C62.7863 103.263 60.6803 103.924 58.4902 103.924L58.2959 103.917C57.7493 103.88 57.151 103.691 56.5 103.35V80.6855C56.8893 80.6227 57.2968 80.5604 57.7227 80.5C58.2547 77.8959 58.5536 75.598 58.6201 73.6064L58.6348 72.7725C58.6348 71.8126 59.1144 71.3321 60.0742 71.332ZM123.498 79.165C124.783 79.2568 126.25 80.0377 127.9 81.5078L128.22 81.8008C129.766 83.2557 130.54 84.5982 130.54 85.8281L130.534 86.0703C130.478 87.2947 130 88.7019 129.1 90.292C129.675 90.8038 129.964 91.2677 129.964 91.6836L129.955 91.8613C129.913 92.3234 129.724 93.1286 129.388 94.2764L129.124 95.2061C128.884 96.0818 128.716 96.7957 128.62 97.3477L128.44 98.2959C128.384 98.576 128.332 98.8203 128.284 99.0283C128.22 99.4442 128.172 99.7802 128.14 100.036L128.068 100.42C128.036 100.564 127.996 100.724 127.948 100.9C127.884 101.252 127.82 101.54 127.756 101.764C127.724 101.956 127.66 102.196 127.564 102.484C127.5 102.74 127.42 102.948 127.324 103.108L126.988 103.54C126.796 103.796 126.476 103.924 126.028 103.924L125.942 103.919C125.509 103.866 124.978 103.42 124.348 102.58C123.708 101.684 123.228 100.596 122.908 99.3164C119.9 102.388 117.372 103.924 115.324 103.924L115.064 103.915C113.761 103.827 112.36 103.078 110.86 101.668C109.361 100.228 108.564 98.8024 108.47 97.3906L108.46 97.1084C108.46 95.6684 109.065 93.6656 110.274 91.1006L110.524 90.5801C111.9 87.7642 113.772 85.1558 116.14 82.7559C118.54 80.3559 120.908 79.1562 123.244 79.1562L123.498 79.165ZM82.1553 85.3623C81.7727 87.9597 81.2969 90.3551 80.7227 92.5479L79.3311 97.8281L79.1475 98.4854C78.9495 99.1751 78.7068 99.9639 78.4189 100.852C77.7789 102.868 77.2024 103.876 76.6904 103.876L76.5801 103.867C76.0139 103.779 75.2509 103.03 74.291 101.62C73.299 100.084 72.8027 98.8835 72.8027 98.0195C72.803 97.2626 73.5139 93.861 74.9346 87.8145L75.252 86.4697C77.5725 86.9572 80.0032 86.5885 82.1553 85.3623ZM98 103.493C97.649 103.184 97.2971 102.688 96.9463 102.004C96.4144 100.884 96.1154 99.7274 96.0488 98.5342L96.0352 98.0195C96.0352 95.241 96.6903 91.7219 98 87.4619V103.493ZM124.108 85.252C122.828 85.252 121.388 86.0841 119.788 87.748C118.22 89.412 116.924 91.1882 115.9 93.0762C114.908 94.9641 114.412 96.3559 114.412 97.252L114.418 97.4287C114.43 97.5909 114.46 97.7082 114.508 97.7803C114.58 97.8283 114.715 97.8581 114.913 97.8701L115.132 97.876C116.332 97.876 117.898 97.1165 119.829 95.5977L120.22 95.2842C122.364 93.5242 123.692 91.3161 124.204 88.6602C124.236 88.2763 124.508 88.0524 125.02 87.9883C124.924 86.1648 124.62 85.2524 124.108 85.252ZM98 85.7959C97.6002 86.3259 97.137 86.9447 96.6104 87.6523C95.5865 88.9961 94.8186 89.988 94.3066 90.6279C93.8266 91.2359 93.2184 91.9561 92.4824 92.7881C91.1705 94.2279 89.8905 94.9482 88.6426 94.9482L88.3359 94.9404C86.9328 94.8686 85.897 94.2946 85.2285 93.2188L85.0908 92.9805C84.7388 92.3085 84.2584 90.8038 83.6504 88.4678C83.3018 87.0346 83.0098 85.8715 82.7783 84.9775C83.918 84.2188 84.9643 83.2071 85.8525 81.9404C86.3147 81.2798 86.8158 80.5543 87.3516 79.7734L87.4355 80.0566C88.1041 82.2442 88.8592 84.2483 89.6992 86.0684C90.6592 84.9484 92.2749 82.884 94.5469 79.876C95.8083 78.2116 96.9592 76.7388 98 75.458V85.7959ZM72.2734 85.3213C72.3225 85.3497 72.3716 85.3777 72.4209 85.4053C71.6133 88.8066 70.9937 91.5082 70.5654 93.502C70.4899 93.8535 70.4219 94.1856 70.3574 94.4971C69.5508 93.5519 68.4602 93.1545 67.4443 93.1055L67.2266 93.0996C66.7532 93.0996 66.3142 93.2019 66.1035 93.2529C65.8219 93.3211 65.5095 93.4123 65.1846 93.5146C64.6992 93.6676 64.1113 93.8726 63.4268 94.1201C64.0091 92.2702 64.5033 90.7007 64.9062 89.4111L64.9053 89.4102C65.1426 88.6832 65.354 88.0268 65.5391 87.4424C67.6268 86.99 69.3195 86.5512 70.5664 86.1162L70.585 86.1104L70.6035 86.1035C71.1599 85.9012 71.7348 85.647 72.2734 85.3213ZM21.8711 84.8271C22.3539 84.8587 22.7637 85 23.0996 85.252C23.4834 85.5399 23.6748 85.86 23.6748 86.2119L23.6689 86.373C23.6089 87.1717 23.0986 87.8857 22.1387 88.5156L21.7432 88.7617C20.7912 89.3182 19.6427 89.7636 18.2988 90.0996L17.1641 90.3711C16.4199 90.5409 15.6983 90.6866 15 90.8125V85.3203C15.565 85.2982 16.1897 85.2635 16.874 85.2129L18.1553 85.1084C19.9472 84.9164 21.1152 84.8203 21.6592 84.8203L21.8711 84.8271ZM104.917 70.2998C105.355 70.5137 105.802 70.8577 106.259 71.332L106.551 71.6562C107.188 72.4122 107.507 73.1679 107.507 73.9238L107.501 74.2598C107.473 75.0718 107.347 76.0801 107.123 77.2842L106.925 78.2773C106.721 79.2552 106.499 80.1883 106.259 81.0762C105.971 82.2282 105.539 83.8122 104.963 85.8281C104.948 85.8851 104.932 85.9417 104.917 85.998V70.2998ZM44.7422 34.1426C45.2614 37.6197 46.2994 41.1209 47.5088 44.376C48.1356 46.0543 48.8265 47.758 49.583 49.4609V77.8848C49.3427 77.6536 49.0929 77.4377 48.832 77.2432C48.1355 76.7239 47.1853 76.2226 46.0352 76.1621L45.8027 76.1562C44.876 76.1562 43.8712 76.4082 42.9961 77.0918C42.144 77.7575 41.6674 78.6345 41.4092 79.4414V79.4424C41.1698 80.1752 40.9056 80.9058 40.6182 81.6348C40.3513 80.4542 39.7756 79.3898 38.9717 78.4668L38.9727 78.4658C38.9675 78.4597 38.9613 78.4544 38.9561 78.4482C38.947 78.4379 38.9388 78.4264 38.9297 78.416L38.9287 78.417C37.8418 77.1544 36.3782 76.2734 34.5996 76.167L34.2344 76.1562C31.8727 76.1564 30.2923 77.917 29.3789 79.2383C28.3623 80.709 27.4237 82.7236 26.5264 85.1357C26.2552 84.1779 25.6518 83.4598 25.0586 82.9766L24.8994 82.8516L24.71 82.7168C23.7552 82.0673 22.6826 81.8203 21.6592 81.8203C20.9282 81.8203 19.6027 81.9368 17.8623 82.123C16.8267 82.2152 15.9289 82.2751 15.1631 82.3105C15.3384 81.3608 15.4876 80.5131 15.6084 79.7686C15.6694 79.393 15.7246 79.0315 15.7744 78.6875C17.0221 78.4947 17.7962 78.3831 18.1328 78.3477L19.0635 78.2549L20.1592 78.1553L20.2236 78.1465C20.9335 78.0539 21.4607 77.9987 21.8252 77.9727L21.9307 77.9648L22.0352 77.9502C22.4325 77.8934 22.9167 77.8342 23.4922 77.7734H23.4932C24.1623 77.7065 24.7481 77.6351 25.2246 77.5557L25.3428 77.5352L25.459 77.5068C25.7975 77.4222 26.1705 77.3359 26.5791 77.248C27.111 77.1413 27.6591 77.0082 28.1367 76.8291L28.2197 76.7979L28.3018 76.7617C28.6805 76.5934 29.0745 76.3947 29.4795 76.1738L29.5176 76.1533L29.5547 76.1309C30.9461 75.3191 31.619 73.9277 31.6191 72.4844C31.6191 70.9427 30.8817 69.7056 29.8906 68.8535C28.9825 68.0729 27.8468 67.5869 26.7402 67.2568L26.7393 67.2578C24.4822 66.5541 21.496 66.2676 17.9629 66.2676C16.9098 66.2676 15.9211 66.2818 15 66.3096V51.7314C15 49.3128 16.2968 47.1408 18.2637 46.2275L44.7422 34.1426ZM98 70.8115C96.5872 72.4067 94.9222 74.4551 93.0127 76.9414L92.1562 78.0635L92.1533 78.0674C91.5923 78.8101 91.0739 79.4913 90.5986 80.1113C90.499 79.8057 90.4009 79.4955 90.3047 79.1807L90.0381 78.2793C89.8476 77.6169 89.6901 77.0269 89.5605 76.5049C92.129 72.6484 95.1248 67.9491 98 62.9365V70.8115ZM79.8105 68.7402C80.4185 68.7402 81.6025 69.3961 83.3623 70.708L83.9932 71.1729C84.0909 71.2477 84.1836 71.3232 84.2744 71.3955C82.8441 73.5491 81.5382 75.4515 80.4492 77.0049C79.5698 78.2567 78.2919 78.8455 77.04 78.7744C77.8742 74.9442 78.3324 72.2671 78.4072 70.7412L78.4189 70.3242C78.4189 69.2683 78.8827 68.7403 79.8105 68.7402ZM77.25 0C91.5805 8.82017e-07 103.188 13.2537 103.188 29.6172C103.187 40.1863 93.4679 57.2378 85.9277 68.877C85.6651 68.6734 85.3907 68.4696 85.1064 68.2666L85.1055 68.2676C84.1939 67.5901 83.3542 67.0207 82.6084 66.6074C82.0304 66.2872 81.0792 65.8052 80.0234 65.7461L79.8105 65.7402C78.7764 65.7403 77.4833 66.0522 76.5137 67.1553C75.6089 68.1848 75.4189 69.4222 75.4189 70.3242C75.4189 71.0316 75.2373 72.5183 74.7646 74.9775C74.6275 75.6911 74.4659 76.4692 74.2861 77.3135C74.2053 77.2152 74.1258 77.1131 74.0508 77.0049C67.1125 67.1079 51.3126 43.093 51.3125 29.6172C51.3125 13.2537 62.9195 0 77.25 0ZM19.2207 69.2812C22.0661 69.3442 24.2868 69.6279 25.8828 70.1318L26.2148 70.2363C27.8178 70.7744 28.6191 71.5244 28.6191 72.4844L28.6104 72.6582C28.5683 73.0501 28.3789 73.3441 28.043 73.54L27.5391 73.8037C27.3791 73.8837 27.227 73.9555 27.083 74.0195L26.8701 74.0918C26.6362 74.1638 26.3393 74.2356 25.9795 74.3076C25.5316 74.4036 25.1153 74.4997 24.7314 74.5957L24.0596 74.6924C23.8035 74.7244 23.5154 74.7561 23.1953 74.7881C22.5874 74.8521 22.0593 74.9165 21.6113 74.9805L20.8311 75.0518C20.5351 75.0838 20.2029 75.1239 19.835 75.1719L18.7793 75.2676C18.4433 75.2996 18.1233 75.3323 17.8193 75.3643L17.1768 75.4453C16.6646 75.5158 15.9391 75.6253 15 75.7715V69.3115C15.9029 69.2832 16.8905 69.2676 17.9629 69.2676L19.2207 69.2812ZM56.5 62.9365C57.5633 64.7904 58.6437 66.6011 59.7119 68.3428C58.8252 68.4012 57.7504 68.693 56.873 69.5703C56.7342 69.7092 56.6109 69.8537 56.5 70.001V62.9365ZM77.25 17.7705C74.957 17.7705 72.7581 18.8107 71.1367 20.6621C69.5153 22.5135 68.6045 25.0243 68.6045 27.6426C68.6045 30.2608 69.5154 32.7716 71.1367 34.623C72.7581 36.4745 74.957 37.5146 77.25 37.5146C79.543 37.5146 81.7419 36.4745 83.3633 34.623C84.9846 32.7716 85.8955 30.2608 85.8955 27.6426C85.8955 25.0243 84.9846 22.5135 83.3633 20.6621C81.7419 18.8107 79.543 17.7705 77.25 17.7705ZM44.7637 34.1338L44.7422 34.1426C44.7418 34.1397 44.7416 34.1367 44.7412 34.1338H44.7637Z" fill="#10B981"/>
<path d="M7.21113 71.716C7.56313 70.66 8.58713 69.988 10.2831 69.7C11.9791 69.412 14.5391 69.268 17.9631 69.268C21.4191 69.268 24.0591 69.556 25.8831 70.132C27.7071 70.676 28.6191 71.46 28.6191 72.484C28.6191 72.964 28.4271 73.316 28.0431 73.54C27.6911 73.732 27.3711 73.892 27.0831 74.02C26.8271 74.116 26.4591 74.212 25.9791 74.308C25.5311 74.404 25.1151 74.5 24.7311 74.596C24.3471 74.66 23.8351 74.724 23.1951 74.788C22.5871 74.852 22.0591 74.916 21.6111 74.98C21.1631 75.012 20.5711 75.076 19.8351 75.172C19.0991 75.236 18.4271 75.3 17.8191 75.364C17.2111 75.428 15.6111 75.668 13.0191 76.084V76.132C13.0191 77.284 12.5231 80.34 11.5311 85.3C11.9471 85.332 12.6991 85.348 13.7871 85.348C14.9071 85.348 16.3631 85.268 18.1551 85.108C19.9471 84.916 21.1151 84.82 21.6591 84.82C22.2351 84.82 22.7151 84.964 23.0991 85.252C23.4831 85.54 23.6751 85.86 23.6751 86.212C23.6751 87.076 23.1631 87.844 22.1391 88.516C21.1151 89.188 19.8351 89.716 18.2991 90.1C15.2271 90.868 12.5231 91.284 10.1871 91.348C9.22713 95.412 8.63513 97.908 8.41113 98.836C8.21913 99.732 8.01113 100.596 7.78713 101.428C7.37113 103.06 6.98713 103.876 6.63513 103.876C5.96313 103.876 5.05113 103.124 3.89913 101.62C2.74713 100.116 2.17113 98.996 2.17113 98.26C2.17113 96.98 2.95513 92.916 4.52313 86.068C6.12313 79.22 6.97113 74.916 7.06713 73.156V72.772C7.06713 72.356 7.11513 72.004 7.21113 71.716ZM44.2668 80.356C44.5228 79.556 45.0348 79.156 45.8028 79.156C46.5708 79.156 47.4508 79.812 48.4428 81.124C49.4668 82.436 49.9788 83.572 49.9788 84.532C49.9788 84.884 49.2428 87.236 47.7708 91.588C46.2988 95.94 45.1628 99.38 44.3628 101.908C43.9148 103.252 43.1628 103.924 42.1068 103.924C41.4668 103.924 40.9228 103.7 40.4748 103.252C40.0588 102.772 39.8508 102.036 39.8508 101.044C39.8508 100.052 40.0428 98.644 40.4268 96.82C37.1308 101.556 34.5068 103.924 32.5547 103.924C31.5308 103.924 30.2988 103.268 28.8588 101.956C27.4188 100.612 26.6988 99.316 26.6988 98.068C26.6988 94.996 27.5628 91.076 29.2908 86.308C31.0508 81.54 32.6988 79.156 34.2348 79.156C35.1628 79.156 35.9788 79.572 36.6828 80.404C37.4188 81.236 37.7868 82.148 37.7868 83.14C37.7868 83.524 37.3868 84.596 36.5868 86.356C34.1548 91.636 32.9388 95.364 32.9388 97.54C32.9388 97.732 33.0188 97.828 33.1788 97.828C33.6588 97.828 34.5548 97.076 35.8668 95.572C37.2108 94.036 38.6988 91.86 40.3307 89.044C41.9948 86.196 43.3068 83.3 44.2668 80.356ZM63.1945 84.868C62.9385 85.732 62.5545 86.948 62.0425 88.516C61.5625 90.052 60.9545 91.988 60.2185 94.324C59.5145 96.66 59.1625 97.908 59.1625 98.068C59.1625 98.196 59.4185 98.26 59.9305 98.26C60.4745 98.26 61.7385 97.908 63.7225 97.204C65.7065 96.468 66.8745 96.1 67.2265 96.1C68.0265 96.1 68.4265 96.644 68.4265 97.732C68.4265 98.82 67.3545 100.132 65.2105 101.668C63.0665 103.172 60.8265 103.924 58.4905 103.924C57.4665 103.924 56.2505 103.364 54.8425 102.244C53.4345 101.124 52.7305 99.988 52.7305 98.836C52.7305 97.876 53.2105 95.86 54.1705 92.788C55.1625 89.684 55.8345 87.556 56.1865 86.404C54.9385 86.756 53.9945 86.932 53.3545 86.932C52.7145 86.932 52.0425 86.5 51.3385 85.636C50.6345 84.74 50.2825 83.892 50.2825 83.092C50.2825 82.068 52.7625 81.204 57.7225 80.5C58.3305 77.524 58.6345 74.948 58.6345 72.772C58.6345 71.812 59.1145 71.332 60.0745 71.332C60.9065 71.332 61.9625 71.844 63.2425 72.868C64.5545 73.86 65.2105 74.852 65.2105 75.844C65.2105 76.804 65.0025 78.164 64.5865 79.924C66.1225 79.86 67.2905 79.828 68.0905 79.828C70.4905 79.828 71.6905 80.372 71.6905 81.46C71.6905 82.164 70.9865 82.772 69.5785 83.284C68.2025 83.764 66.0745 84.292 63.1945 84.868ZM79.8108 68.74C80.4188 68.74 81.6028 69.396 83.3628 70.708C85.1548 71.988 86.0508 72.948 86.0508 73.588C86.0508 74.708 86.4188 76.548 87.1548 79.108C87.8908 81.668 88.7388 83.988 89.6988 86.068C90.6588 84.948 92.2748 82.884 94.5468 79.876C96.8508 76.836 98.7868 74.436 100.355 72.676C101.923 70.916 103.091 70.036 103.859 70.036C104.627 70.036 105.427 70.468 106.259 71.332C107.091 72.196 107.507 73.06 107.507 73.924C107.507 74.788 107.379 75.908 107.123 77.284C106.867 78.628 106.579 79.892 106.259 81.076C105.971 82.228 105.539 83.812 104.963 85.828C104.419 87.844 103.987 89.444 103.667 90.628C103.379 91.78 103.075 93.028 102.755 94.372C102.435 95.684 102.179 96.724 101.987 97.492C101.827 98.228 101.635 99.012 101.411 99.844C101.219 100.644 101.043 101.268 100.883 101.716C100.723 102.132 100.547 102.516 100.355 102.868C100.003 103.54 99.5068 103.876 98.8668 103.876C98.2268 103.876 97.5868 103.252 96.9468 102.004C96.3388 100.724 96.0348 99.396 96.0348 98.02C96.0348 94.628 97.0108 90.132 98.9628 84.532C98.4188 85.236 97.6348 86.276 96.6108 87.652C95.5868 88.996 94.8188 89.988 94.3068 90.628C93.8268 91.236 93.2188 91.956 92.4828 92.788C91.1708 94.228 89.8908 94.948 88.6428 94.948C86.9788 94.948 85.7948 94.292 85.0908 92.98C84.7388 92.308 84.2588 90.804 83.6508 88.468C83.0748 86.1 82.6588 84.468 82.4028 83.572C81.9868 86.868 81.4268 89.86 80.7228 92.548C80.0188 95.236 79.5548 96.996 79.3308 97.828C79.1068 98.66 78.8028 99.668 78.4188 100.852C77.7788 102.868 77.2028 103.876 76.6908 103.876C76.1148 103.876 75.3148 103.124 74.2908 101.62C73.2988 100.084 72.8027 98.884 72.8027 98.02C72.8027 97.156 73.7308 92.836 75.5868 85.06C77.4748 77.284 78.4188 72.372 78.4188 70.324C78.4188 69.268 78.8828 68.74 79.8108 68.74ZM129.1 90.292C129.676 90.804 129.964 91.268 129.964 91.684C129.964 92.1 129.772 92.964 129.388 94.276C129.004 95.588 128.748 96.612 128.62 97.348C128.492 98.052 128.38 98.612 128.284 99.028C128.22 99.444 128.172 99.78 128.14 100.036C128.108 100.26 128.044 100.548 127.948 100.9C127.884 101.252 127.82 101.54 127.756 101.764C127.724 101.956 127.66 102.196 127.564 102.484C127.5 102.74 127.42 102.948 127.324 103.108C127.228 103.236 127.116 103.38 126.988 103.54C126.796 103.796 126.476 103.924 126.028 103.924C125.58 103.924 125.02 103.476 124.348 102.58C123.708 101.684 123.228 100.596 122.908 99.316C119.9 102.388 117.372 103.924 115.324 103.924C113.948 103.924 112.46 103.172 110.86 101.668C109.26 100.132 108.46 98.612 108.46 97.108C108.46 95.572 109.148 93.396 110.524 90.58C111.9 87.764 113.772 85.156 116.14 82.756C118.54 80.356 120.908 79.156 123.244 79.156C124.588 79.156 126.14 79.94 127.9 81.508C129.66 83.076 130.54 84.516 130.54 85.828C130.54 87.108 130.06 88.596 129.1 90.292ZM115.132 97.876C116.412 97.876 118.108 97.012 120.22 95.284C122.364 93.524 123.692 91.316 124.204 88.66C124.236 88.276 124.508 88.052 125.02 87.988C124.924 86.164 124.62 85.252 124.108 85.252C122.828 85.252 121.388 86.084 119.788 87.748C118.22 89.412 116.924 91.188 115.9 93.076C114.908 94.964 114.412 96.356 114.412 97.252C114.412 97.508 114.444 97.684 114.508 97.78C114.604 97.844 114.812 97.876 115.132 97.876ZM150.593 79.204C151.777 79.204 153.041 80.26 154.385 82.372C155.761 84.484 156.449 86.596 156.449 88.708C156.449 89.988 155.905 91.508 154.817 93.268C153.729 95.028 152.353 96.692 150.689 98.26C149.057 99.796 147.153 101.108 144.977 102.196C142.833 103.284 140.785 103.828 138.833 103.828H138.257C136.241 112.212 134.817 116.404 133.985 116.404C133.313 116.404 132.609 115.844 131.873 114.724C131.105 113.604 130.721 112.676 130.721 111.94C130.721 111.204 131.185 108.948 132.113 105.172C134.865 93.972 136.241 85.524 136.241 79.828C136.241 78.868 136.705 78.388 137.633 78.388C138.401 78.388 139.377 78.82 140.561 79.684C141.745 80.548 142.481 81.668 142.769 83.044C145.489 80.484 148.097 79.204 150.593 79.204ZM139.745 98.116C142.241 97.636 144.593 96.26 146.801 93.988C149.041 91.716 150.161 89.748 150.161 88.084C150.161 86.42 149.697 85.588 148.769 85.588C147.425 85.588 146.001 86.356 144.497 87.892C143.889 88.532 143.217 89.476 142.481 90.724C141.745 91.972 141.105 93.428 140.561 95.092L139.745 98.116Z" fill="#222222"/>
</svg>
