<svg width="17" height="16" viewBox="0 0 17 16" fill="none" xmlns="http://www.w3.org/2000/svg">
<path d="M8.2965 0C8.0865 0 7.8791 0.0499901 7.68207 0.1464L0.410019 3.76355C0.163728 3.88852 0.000399049 4.20989 0.000399049 4.57053C0.000399049 4.93118 0.163728 5.25254 0.410019 5.37752L1.91109 6.1238C1.48592 7.04505 1.24481 8.13412 1.24481 9.28032V10.2837C1.24481 11.2978 0.96482 12.344 0.666679 13.1688C0.498165 13.633 0.306318 14.0901 0.08336 14.5114C0.00039905 14.665 -0.0229337 14.8649 0.0237318 15.0471C0.0703974 15.2292 0.179284 15.3648 0.314095 15.4113L1.97331 15.9826C2.0822 16.0219 2.19886 15.9933 2.29479 15.9112C2.39071 15.829 2.45812 15.6934 2.47886 15.5398C2.70182 14.0115 2.59034 12.6404 2.42441 11.6584C2.34145 11.1514 2.22997 10.6336 2.07442 10.1587V9.28032C2.07442 8.20196 2.33886 7.18431 2.79774 6.37018C3.13218 5.81672 3.56513 5.37038 4.07326 5.09543L8.14354 2.89229C8.35612 2.77803 8.59723 2.92086 8.68019 3.21366C8.76315 3.50646 8.65945 3.83853 8.44686 3.9528L4.37659 6.15594C4.05512 6.3309 3.77253 6.59871 3.5418 6.92721L7.67947 8.98395C7.87651 9.08036 8.08391 9.13035 8.2939 9.13035C8.5039 9.13035 8.7113 9.08036 8.90833 8.98395L16.183 5.37752C16.4293 5.25611 16.5926 4.93118 16.5926 4.57053C16.5926 4.20989 16.4293 3.88852 16.183 3.76355L8.91093 0.1464C8.71389 0.0499901 8.50649 0 8.2965 0ZM3.31884 13.4259C3.31884 14.6864 5.54841 15.9969 8.2965 15.9969C11.0446 15.9969 13.2742 14.6864 13.2742 13.4259L12.8775 8.2341L9.19092 10.0695C8.90315 10.2123 8.59982 10.2837 8.2965 10.2837C7.99317 10.2837 7.68725 10.2123 7.40207 10.0695L3.7155 8.2341L3.31884 13.4259Z" fill="#222222"/>
</svg>
