<svg width="30" height="30" viewBox="0 0 30 30" fill="none" xmlns="http://www.w3.org/2000/svg">
<path d="M21.25 7.13665C21.25 10.3838 17.4427 16.1705 15.7708 18.5553C15.3698 19.1262 14.625 19.1262 14.2292 18.5553C12.5573 16.1705 8.75 10.3838 8.75 7.13665C8.75 3.19365 11.5469 0 15 0C18.4531 0 21.25 3.19365 21.25 7.13665ZM21.6667 11.9182C21.849 11.5078 22.0156 11.0975 22.1667 10.6931C22.1927 10.6217 22.2188 10.5444 22.2448 10.473L28.2865 7.71353C29.1094 7.33886 30 8.02873 30 9.03976V25.1448C30 25.7276 29.6875 26.251 29.2135 26.471L21.6667 29.9145V11.9182ZM7.16667 8.22499C7.29167 9.06355 7.54167 9.90805 7.83333 10.6931C7.98437 11.0975 8.15104 11.5078 8.33333 11.9182V26.8695L1.71354 29.8966C0.890625 30.2713 0 29.5814 0 28.5704V12.4654C0 11.8825 0.3125 11.3592 0.786458 11.1391L7.17187 8.22499H7.16667ZM17.0729 19.7447C17.7969 18.7099 18.9323 17.0269 20 15.1654V29.9918L10 26.7268V15.1654C11.0677 17.0269 12.2031 18.7099 12.9271 19.7447C13.9948 21.2672 16.0052 21.2672 17.0729 19.7447ZM15 9.03976C15.5525 9.03976 16.0824 8.78913 16.4731 8.343C16.8638 7.89687 17.0833 7.29179 17.0833 6.66087C17.0833 6.02995 16.8638 5.42488 16.4731 4.97875C16.0824 4.53262 15.5525 4.28199 15 4.28199C14.4475 4.28199 13.9176 4.53262 13.5269 4.97875C13.1362 5.42488 12.9167 6.02995 12.9167 6.66087C12.9167 7.29179 13.1362 7.89687 13.5269 8.343C13.9176 8.78913 14.4475 9.03976 15 9.03976Z" fill="#222222"/>
</svg>
