<svg width="14" height="17" viewBox="0 0 14 17" fill="none" xmlns="http://www.w3.org/2000/svg">
<path d="M6.9994 0.641846C6.44628 0.641846 5.9994 1.08872 5.9994 1.64185V2.24185C3.71815 2.70435 1.9994 4.7231 1.9994 7.14185V7.72935C1.9994 9.1981 1.45878 10.6168 0.483777 11.7168L0.252527 11.9762C-0.00997317 12.27 -0.0724732 12.6918 0.0869018 13.0512C0.246277 13.4106 0.605652 13.6418 0.999402 13.6418H12.9994C13.3932 13.6418 13.7494 13.4106 13.9119 13.0512C14.0744 12.6918 14.0088 12.27 13.7463 11.9762L13.515 11.7168C12.54 10.6168 11.9994 9.20122 11.9994 7.72935V7.14185C11.9994 4.7231 10.2807 2.70435 7.9994 2.24185V1.64185C7.9994 1.08872 7.55253 0.641846 6.9994 0.641846ZM8.41503 16.0575C8.79003 15.6825 8.9994 15.1731 8.9994 14.6418H6.9994H4.9994C4.9994 15.1731 5.20878 15.6825 5.58378 16.0575C5.95878 16.4325 6.46815 16.6418 6.9994 16.6418C7.53065 16.6418 8.04003 16.4325 8.41503 16.0575Z" fill="#9333EA"/>
</svg>
