<svg width="14" height="16" viewBox="0 0 14 16" fill="none" xmlns="http://www.w3.org/2000/svg">
<path d="M7.0006 0C7.55372 0 8.0006 0.446875 8.0006 1V1.6C10.2818 2.0625 12.0006 4.08125 12.0006 6.5V7.0875C12.0006 8.55625 12.5412 9.975 13.5162 11.075L13.7475 11.3344C14.01 11.6281 14.0725 12.05 13.9131 12.4094C13.7537 12.7688 13.3943 13 13.0006 13H1.0006C0.606848 13 0.250598 12.7688 0.0880976 12.4094C-0.0744028 12.05 -0.00877666 11.6281 0.253723 11.3344L0.484973 11.075C1.45997 9.975 2.0006 8.55937 2.0006 7.0875V6.5C2.0006 4.08125 3.71935 2.0625 6.0006 1.6V1C6.0006 0.446875 6.44747 0 7.0006 0ZM5.58497 15.4156C5.20997 15.0406 5.0006 14.5312 5.0006 14H7.0006H9.0006C9.0006 14.5312 8.79122 15.0406 8.41622 15.4156C8.04122 15.7906 7.53185 16 7.0006 16C6.46935 16 5.95997 15.7906 5.58497 15.4156Z" fill="#222222"/>
</svg>
