<svg width="14" height="19" viewBox="0 0 14 19" fill="none" xmlns="http://www.w3.org/2000/svg">
<path d="M8.0832 17.8C9.88672 15.543 14 10.0727 14 7C14 3.27344 10.9766 0.25 7.25 0.25C3.52344 0.25 0.5 3.27344 0.5 7C0.5 10.0727 4.61328 15.543 6.4168 17.8C6.84922 18.3379 7.65078 18.3379 8.0832 17.8ZM7.25 4.75C7.84674 4.75 8.41903 4.98705 8.84099 5.40901C9.26295 5.83097 9.5 6.40326 9.5 7C9.5 7.59674 9.26295 8.16903 8.84099 8.59099C8.41903 9.01295 7.84674 9.25 7.25 9.25C6.65326 9.25 6.08097 9.01295 5.65901 8.59099C5.23705 8.16903 5 7.59674 5 7C5 6.40326 5.23705 5.83097 5.65901 5.40901C6.08097 4.98705 6.65326 4.75 7.25 4.75Z" fill="#10B981"/>
</svg>
